<svg width="52" height="52" viewBox="0 0 52 52" fill="none" xmlns="http://www.w3.org/2000/svg">
<circle cx="26" cy="26" r="26" transform="rotate(180 26 26)" fill="white"/>
<path d="M22.6406 35.6094C23.1094 36.0781 23.9687 36.0781 24.4375 35.6094L33.1875 26.8594C33.4219 26.625 33.5 26.3125 33.5 26C33.5 25.6094 33.4219 25.2969 33.1875 25.0625L24.4375 16.3125C23.9687 15.8438 23.1094 15.8438 22.6406 16.3125C22.1719 16.7813 22.1719 17.6406 22.6406 18.1094L30.5312 26L22.6406 33.8125C22.1719 34.2813 22.1719 35.1406 22.6406 35.6094ZM26 46C37.0938 46 46 37.0156 46 26C46 14.9062 37.0937 6 26 6C14.9844 6 6 14.9063 6 26C6 37.0156 14.9844 46 26 46ZM26 8.5C35.6875 8.5 43.5 16.3125 43.5 26C43.5 35.6094 35.6875 43.5 26 43.5C16.3906 43.5 8.5 35.6094 8.5 26C8.5 16.3125 16.3906 8.5 26 8.5Z" fill="black"/>
<path d="M30.5312 26L30.883 26.3553L31.2401 26.0018L30.8848 25.6464L30.5312 26ZM22.6406 33.8125L22.2888 33.4572L22.2871 33.4589L22.6406 33.8125ZM22.2871 35.9629C22.9511 36.6269 24.127 36.6269 24.7911 35.9629L24.0839 35.2558C23.8105 35.5293 23.2677 35.5293 22.9942 35.2558L22.2871 35.9629ZM24.7911 35.9629L33.5411 27.2129L32.8339 26.5058L24.0839 35.2558L24.7911 35.9629ZM33.5411 27.2129C33.9023 26.8517 34 26.3896 34 26L33 26C33 26.2354 32.9415 26.3983 32.8339 26.5058L33.5411 27.2129ZM34 26C34 25.5485 33.91 25.0779 33.5411 24.7089L32.8339 25.4161C32.9338 25.5159 33 25.6702 33 26L34 26ZM33.5411 24.7089L24.7911 15.9589L24.0839 16.6661L32.8339 25.4161L33.5411 24.7089ZM24.7911 15.9589C24.127 15.2949 22.9511 15.2949 22.2871 15.9589L22.9942 16.6661C23.2677 16.3926 23.8105 16.3926 24.0839 16.6661L24.7911 15.9589ZM22.2871 15.9589C21.6231 16.623 21.6231 17.7989 22.2871 18.4629L22.9942 17.7558C22.7207 17.4823 22.7207 16.9395 22.9942 16.6661L22.2871 15.9589ZM22.2871 18.4629L30.1777 26.3536L30.8848 25.6464L22.9942 17.7558L22.2871 18.4629ZM30.1795 25.6447L22.2888 33.4572L22.9924 34.1678L30.883 26.3553L30.1795 25.6447ZM22.2871 33.4589C21.6231 34.123 21.6231 35.2989 22.2871 35.9629L22.9942 35.2558C22.7207 34.9823 22.7207 34.4395 22.9942 34.1661L22.2871 33.4589ZM26 46.5C37.3712 46.5 46.5 37.2905 46.5 26L45.5 26C45.5 36.7408 36.8163 45.5 26 45.5L26 46.5ZM46.5 26C46.5 14.6301 37.3699 5.5 26 5.5L26 6.5C36.8176 6.5 45.5 15.1824 45.5 26L46.5 26ZM26 5.5C14.7095 5.5 5.5 14.6288 5.5 26L6.5 26C6.5 15.1837 15.2592 6.5 26 6.5L26 5.5ZM5.5 26C5.5 37.2918 14.7082 46.5 26 46.5L26 45.5C15.2605 45.5 6.5 36.7395 6.5 26L5.5 26ZM26 9C35.4114 9 43 16.5886 43 26L44 26C44 16.0364 35.9636 8 26 8L26 9ZM43 26C43 35.3347 35.4099 43 26 43L26 44C35.9651 44 44 35.8841 44 26L43 26ZM26 43C16.6668 43 9 35.3332 9 26L8 26C8 35.8855 16.1145 44 26 44L26 43ZM9 26C9 16.5901 16.6653 9 26 9L26 8C16.1159 8 8 16.0349 8 26L9 26Z" fill="url(#paint0_linear_1580_2377)"/>
<defs>
<linearGradient id="paint0_linear_1580_2377" x1="26" y1="39" x2="26" y2="14" gradientUnits="userSpaceOnUse">
<stop stop-color="#8D29DB"/>
<stop offset="1" stop-color="#05FFF0"/>
</linearGradient>
</defs>
</svg>
