<svg width="52" height="52" viewBox="0 0 52 52" fill="none" xmlns="http://www.w3.org/2000/svg">
<circle cx="26" cy="26" r="26" fill="white"/>
<path d="M29.3594 16.3906C28.8906 15.9219 28.0312 15.9219 27.5625 16.3906L18.8125 25.1406C18.5781 25.375 18.5 25.6875 18.5 26C18.5 26.3906 18.5781 26.7031 18.8125 26.9375L27.5625 35.6875C28.0312 36.1562 28.8906 36.1562 29.3594 35.6875C29.8281 35.2188 29.8281 34.3594 29.3594 33.8906L21.4688 26L29.3594 18.1875C29.8281 17.7188 29.8281 16.8594 29.3594 16.3906ZM26 6C14.9062 6 6 14.9844 6 26C6 37.0938 14.9062 46 26 46C37.0156 46 46 37.0938 46 26C46 14.9844 37.0156 6 26 6ZM26 43.5C16.3125 43.5 8.5 35.6875 8.5 26C8.5 16.3906 16.3125 8.5 26 8.5C35.6094 8.5 43.5 16.3906 43.5 26C43.5 35.6875 35.6094 43.5 26 43.5Z" fill="black"/>
<path d="M21.4688 26L21.117 25.6447L20.7599 25.9982L21.1152 26.3536L21.4688 26ZM29.3594 18.1875L29.7112 18.5428L29.7129 18.5411L29.3594 18.1875ZM29.7129 16.0371C29.0489 15.3731 27.873 15.3731 27.2089 16.0371L27.9161 16.7442C28.1895 16.4707 28.7323 16.4707 29.0058 16.7442L29.7129 16.0371ZM27.2089 16.0371L18.4589 24.7871L19.1661 25.4942L27.9161 16.7442L27.2089 16.0371ZM18.4589 24.7871C18.0977 25.1483 18 25.6104 18 26H19C19 25.7646 19.0585 25.6017 19.1661 25.4942L18.4589 24.7871ZM18 26C18 26.4515 18.09 26.9221 18.4589 27.2911L19.1661 26.5839C19.0662 26.4841 19 26.3298 19 26H18ZM18.4589 27.2911L27.2089 36.0411L27.9161 35.3339L19.1661 26.5839L18.4589 27.2911ZM27.2089 36.0411C27.873 36.7051 29.0489 36.7051 29.7129 36.0411L29.0058 35.3339C28.7323 35.6074 28.1895 35.6074 27.9161 35.3339L27.2089 36.0411ZM29.7129 36.0411C30.3769 35.377 30.3769 34.2011 29.7129 33.5371L29.0058 34.2442C29.2793 34.5177 29.2793 35.0605 29.0058 35.3339L29.7129 36.0411ZM29.7129 33.5371L21.8223 25.6464L21.1152 26.3536L29.0058 34.2442L29.7129 33.5371ZM21.8205 26.3553L29.7112 18.5428L29.0076 17.8322L21.117 25.6447L21.8205 26.3553ZM29.7129 18.5411C30.3769 17.877 30.3769 16.7011 29.7129 16.0371L29.0058 16.7442C29.2793 17.0177 29.2793 17.5605 29.0058 17.8339L29.7129 18.5411ZM26 5.5C14.6288 5.5 5.5 14.7095 5.5 26H6.5C6.5 15.2592 15.1837 6.5 26 6.5V5.5ZM5.5 26C5.5 37.3699 14.6301 46.5 26 46.5V45.5C15.1824 45.5 6.5 36.8176 6.5 26H5.5ZM26 46.5C37.2905 46.5 46.5 37.3712 46.5 26H45.5C45.5 36.8163 36.7408 45.5 26 45.5V46.5ZM46.5 26C46.5 14.7082 37.2918 5.5 26 5.5V6.5C36.7395 6.5 45.5 15.2605 45.5 26H46.5ZM26 43C16.5886 43 9 35.4114 9 26H8C8 35.9636 16.0364 44 26 44V43ZM9 26C9 16.6653 16.5901 9 26 9V8C16.0349 8 8 16.1159 8 26H9ZM26 9C35.3332 9 43 16.6668 43 26H44C44 16.1145 35.8855 8 26 8V9ZM43 26C43 35.4099 35.3347 43 26 43V44C35.8841 44 44 35.9651 44 26H43Z" fill="url(#paint0_linear_1580_2380)"/>
<defs>
<linearGradient id="paint0_linear_1580_2380" x1="26" y1="13" x2="26" y2="38" gradientUnits="userSpaceOnUse">
<stop stop-color="#8D29DB"/>
<stop offset="1" stop-color="#05FFF0"/>
</linearGradient>
</defs>
</svg>
